<?xml version="1.0" standalone="no"?>
<!DOCTYPE svg PUBLIC "-//W3C//DTD SVG 20010904//EN"
 "http://www.w3.org/TR/2001/REC-SVG-20010904/DTD/svg10.dtd">
<svg version="1.0" xmlns="http://www.w3.org/2000/svg"
 width="1280.000000pt" height="674.000000pt" viewBox="0 0 1280.000000 674.000000"
 preserveAspectRatio="xMidYMid meet">
<metadata>
Created by potrace 1.15, written by Peter Selinger 2001-2017
</metadata>
<g transform="translate(0.000000,674.000000) scale(0.100000,-0.100000)"
fill="#d8af86" stroke="none">
<path d="M5375 6705 c-142 -44 -856 -287 -1502 -511 -279 -97 -568 -197 -642
-221 -162 -55 -194 -79 -194 -144 0 -43 3 -47 91 -129 50 -47 223 -204 385
-350 162 -146 294 -266 293 -267 -1 -1 -54 23 -117 53 -366 178 -817 374
-1012 439 -356 119 -799 149 -1091 75 -84 -22 -96 -30 -96 -64 0 -68 130 -277
260 -418 72 -79 132 -111 288 -153 56 -15 105 -31 107 -35 10 -16 -92 -30
-530 -70 -366 -34 -567 -58 -787 -95 -520 -87 -848 -205 -825 -297 10 -35 143
-164 232 -223 123 -82 311 -172 638 -304 501 -203 597 -267 546 -362 -18 -34
-106 -82 -349 -189 -526 -231 -686 -309 -794 -389 -153 -113 -125 -192 86
-240 201 -47 419 -62 1038 -70 360 -6 557 -12 581 -20 49 -15 72 -42 64 -74
-17 -65 -178 -208 -465 -412 -283 -202 -350 -266 -350 -337 0 -55 77 -110 219
-158 295 -99 954 -52 1886 135 187 37 616 130 700 151 l25 6 -16 -28 c-10 -16
-255 -213 -545 -439 -565 -438 -571 -444 -549 -509 6 -19 18 -40 28 -49 23
-21 1777 -776 2187 -942 162 -65 184 -70 226 -51 19 8 328 271 688 584 l654
570 436 5 c444 5 579 14 906 58 1425 193 2889 830 4175 1818 142 108 383 309
480 398 62 57 65 63 65 106 0 55 -9 66 -180 212 -976 832 -2432 1437 -3960
1644 -506 69 -1160 103 -1615 83 l-195 -8 -110 106 c-60 59 -347 337 -637 619
-291 281 -540 516 -554 521 -37 14 -47 13 -169 -25z"/>
</g>
</svg>
