<?xml version="1.0" encoding="utf-8"?><svg xmlns="http://www.w3.org/2000/svg" width="234" height="46" preserveAspectRatio="xMidYMid" xmlns:xlink="http://www.w3.org/1999/xlink" style="margin-right:-2px;display:block;background-repeat-y:initial;background-repeat-x:initial;animation-play-state:paused" ><style type="text/css" style="animation-play-state:paused" >text {
    text-anchor: middle; font-size: 42px; opacity: 0;
  }</style>


<g style="transform-origin:117px 23px;transform:matrix(0.591549, 0, 0, 0.591549, 0, 0);animation-play-state:paused" ><g transform="translate(117,23)" style="transform:matrix(1, 0, 0, 1, 117, 23);animation-play-state:paused" ><g transform="translate(0,0)" style="transform:matrix(1, 0, 0, 1, 0, 0);animation-play-state:paused" ><g class="path" style="transform-origin:-170.82px -5.56643px;animation-timing-function:linear;animation-play-state:paused;animation-name:static-a48ec6e6-e846-4aa4-9a6f-d8552e909e03;animation-iteration-count:infinite;animation-fill-mode:forwards;animation-duration:1s;animation-delay:-0.5775s" ><path d="M3.27-49.70L45.16-49.70L45.87-31.88L44.52-31.88L44.52-31.88Q41.39-41.32 38.98-44.77L38.98-44.77L38.98-44.77Q36.57-48.21 32.02-48.21L32.02-48.21L31.17-48.21L31.17-1.49L37.20-1.49L37.20 0L11.29 0L11.29-1.49L17.32-1.49L17.32-48.21L16.40-48.21L16.40-48.21Q11.86-48.21 9.37-44.62L9.37-44.62L9.37-44.62Q6.89-41.04 3.91-31.88L3.91-31.88L2.56-31.88L3.27-49.70" fill="#d8af8b" stroke="none" stroke-width="none" transform="translate(-195.03500366210938,19.283572158813477)" style="transform:matrix(1, 0, 0, 1, -195.035, 19.2836);fill:rgb(216, 175, 139);animation-play-state:paused" ></path></g>
<g class="path" style="transform-origin:-125.28px -5.56643px;animation-timing-function:linear;animation-play-state:paused;animation-name:static-a48ec6e6-e846-4aa4-9a6f-d8552e909e03;animation-iteration-count:infinite;animation-fill-mode:forwards;animation-duration:1s;animation-delay:-0.495s" ><path d="M49.98-48.14L49.98-49.70L86.90-49.70L87.61-35.64L86.34-35.64L86.34-35.64Q83.35-42.81 80.09-45.48L80.09-45.48L80.09-45.48Q76.82-48.14 70.50-48.14L70.50-48.14L68.02-48.14L68.02-26.20L70.43-26.20L70.43-26.20Q73.77-26.20 76.04-28.72L76.04-28.72L76.04-28.72Q78.31-31.24 79.24-35.50L79.24-35.50L80.30-35.50L80.30-14.48L79.09-14.48L79.09-14.48Q77.82-19.81 75.65-22.08L75.65-22.08L75.65-22.08Q73.49-24.35 69.72-24.35L69.72-24.35L68.02-24.35L68.02-1.56L70.72-1.56L70.72-1.56Q77.25-1.56 81.83-5.47L81.83-5.47L81.83-5.47Q86.41-9.37 88.11-15.48L88.11-15.48L89.53-15.48L88.96 0L49.98 0L49.98-1.56L54.17-1.56L54.17-48.14L49.98-48.14" fill="#d8af8b" stroke="none" stroke-width="none" transform="translate(-195.03500366210938,19.283572158813477)" style="transform:matrix(1, 0, 0, 1, -195.035, 19.2836);fill:rgb(216, 175, 139);animation-play-state:paused" ></path></g>
<g class="path" style="transform-origin:-80.3px -5.60143px;animation-timing-function:linear;animation-play-state:paused;animation-name:static-a48ec6e6-e846-4aa4-9a6f-d8552e909e03;animation-iteration-count:infinite;animation-fill-mode:forwards;animation-duration:1s;animation-delay:-0.4125s" ><path d="M119.42-49.06L119.42-49.06L119.42-49.06Q108.42-49.06 108.42-27.83L108.42-27.83L108.42-22.22L108.42-22.22Q108.42-12.14 111.33-6.43L111.33-6.43L111.33-6.43Q114.24-0.71 119.92-0.71L119.92-0.71L119.92-0.71Q127.73-0.71 134.26-15.90L134.26-15.90L135.54-15.90L135.04-0.07L134.26-0.07L134.26-0.07Q133.83-0.85 133.48-1.17L133.48-1.17L133.48-1.17Q133.13-1.49 132.45-1.49L132.45-1.49L132.45-1.49Q131.78-1.49 127.30-0.39L127.30-0.39L127.30-0.39Q122.83 0.71 118.21 0.71L118.21 0.71L118.21 0.71Q106.64 0.71 100.29-5.54L100.29-5.54L100.29-5.54Q93.93-11.79 93.93-24.32L93.93-24.32L93.93-24.32Q93.93-36.85 100.57-43.67L100.57-43.67L100.57-43.67Q107.21-50.48 118.43-50.48L118.43-50.48L118.43-50.48Q122.76-50.48 126.91-49.38L126.91-49.38L126.91-49.38Q131.07-48.28 131.78-48.28L131.78-48.28L131.78-48.28Q132.49-48.28 132.84-48.60L132.84-48.60L132.84-48.60Q133.20-48.92 133.62-49.70L133.62-49.70L134.40-49.70L134.97-34.29L133.69-34.29L133.69-34.29Q130.50-41.46 127.13-45.26L127.13-45.26L127.13-45.26Q123.75-49.06 119.42-49.06" fill="#d8af8b" stroke="none" stroke-width="none" transform="translate(-195.03500366210938,19.283572158813477)" style="transform:matrix(1, 0, 0, 1, -195.035, 19.2836);fill:rgb(216, 175, 139);animation-play-state:paused" ></path></g>
<g class="path" style="transform-origin:-28.435px -5.56643px;animation-timing-function:linear;animation-play-state:paused;animation-name:static-a48ec6e6-e846-4aa4-9a6f-d8552e909e03;animation-iteration-count:infinite;animation-fill-mode:forwards;animation-duration:1s;animation-delay:-0.33s" ><path d="M141.50-48.35L141.50-49.70L163.66-49.70L163.66-48.35L159.54-48.35L159.54-26.34L173.67-26.34L173.67-48.35L169.48-48.35L169.48-49.70L191.70-49.70L191.70-48.35L187.51-48.35L187.51-1.35L191.70-1.35L191.70 0L169.48 0L169.48-1.35L173.67-1.35L173.67-24.50L159.54-24.50L159.54-1.35L163.66-1.35L163.66 0L141.50 0L141.50-1.35L145.69-1.35L145.69-48.35L141.50-48.35" fill="#d8af8b" stroke="none" stroke-width="none" transform="translate(-195.03500366210938,19.283572158813477)" style="transform:matrix(1, 0, 0, 1, -195.035, 19.2836);fill:rgb(216, 175, 139);animation-play-state:paused" ></path></g>
<g class="path" style="transform-origin:34.65px -5.60143px;animation-timing-function:linear;animation-play-state:paused;animation-name:static-a48ec6e6-e846-4aa4-9a6f-d8552e909e03;animation-iteration-count:infinite;animation-fill-mode:forwards;animation-duration:1s;animation-delay:-0.2475s" ><path d="M234.37-49.06L234.37-49.06L234.37-49.06Q223.37-49.06 223.37-27.83L223.37-27.83L223.37-22.22L223.37-22.22Q223.37-12.14 226.28-6.43L226.28-6.43L226.28-6.43Q229.19-0.71 234.87-0.71L234.87-0.71L234.87-0.71Q242.68-0.71 249.21-15.90L249.21-15.90L250.49-15.90L249.99-0.07L249.21-0.07L249.21-0.07Q248.78-0.85 248.43-1.17L248.43-1.17L248.43-1.17Q248.07-1.49 247.40-1.49L247.40-1.49L247.40-1.49Q246.73-1.49 242.25-0.39L242.25-0.39L242.25-0.39Q237.78 0.71 233.16 0.71L233.16 0.71L233.16 0.71Q221.59 0.71 215.24-5.54L215.24-5.54L215.24-5.54Q208.88-11.79 208.88-24.32L208.88-24.32L208.88-24.32Q208.88-36.85 215.52-43.67L215.52-43.67L215.52-43.67Q222.16-50.48 233.38-50.48L233.38-50.48L233.38-50.48Q237.71-50.48 241.86-49.38L241.86-49.38L241.86-49.38Q246.02-48.28 246.73-48.28L246.73-48.28L246.73-48.28Q247.44-48.28 247.79-48.60L247.79-48.60L247.79-48.60Q248.15-48.92 248.57-49.70L248.57-49.70L249.35-49.70L249.92-34.29L248.64-34.29L248.64-34.29Q245.45-41.46 242.07-45.26L242.07-45.26L242.07-45.26Q238.70-49.06 234.37-49.06" fill="#d8af8b" stroke="none" stroke-width="none" transform="translate(-195.03500366210938,19.283572158813477)" style="transform:matrix(1, 0, 0, 1, -195.035, 19.2836);fill:rgb(216, 175, 139);animation-play-state:paused" ></path></g>
<g class="path" style="transform-origin:84.35px -5.60143px;animation-timing-function:linear;animation-play-state:paused;animation-name:static-a48ec6e6-e846-4aa4-9a6f-d8552e909e03;animation-iteration-count:infinite;animation-fill-mode:forwards;animation-duration:1s;animation-delay:-0.165s" ><path d="M288.40-21.94L288.40-21.94L288.40-27.19L288.40-27.19Q288.40-40.19 287.12-43.59L287.12-43.59L287.12-43.59Q285.70-47.50 283.08-48.42L283.08-48.42L283.08-48.42Q281.59-48.99 279.46-48.99L279.46-48.99L279.46-48.99Q277.33-48.99 275.80-48.42L275.80-48.42L275.80-48.42Q274.27-47.85 273.28-46.43L273.28-46.43L273.28-46.43Q272.29-45.01 271.68-43.45L271.68-43.45L271.68-43.45Q271.08-41.89 270.72-39.05L270.72-39.05L270.72-39.05Q270.30-34.93 270.30-26.91L270.30-26.91L270.30-21.80L270.30-21.80Q270.30-13.14 270.97-9.48L270.97-9.48L270.97-9.48Q271.65-5.82 272.64-4.26L272.64-4.26L272.64-4.26Q274.84-0.78 279.46-0.78L279.46-0.78L279.46-0.78Q285.06-0.78 286.73-5.50L286.73-5.50L286.73-5.50Q288.40-10.22 288.40-21.94zM279.31 0.71L279.31 0.71L279.31 0.71Q267.46 0.71 261.60-5.72L261.60-5.72L261.60-5.72Q255.74-12.14 255.74-24.32L255.74-24.32L255.74-24.32Q255.74-36.49 262.03-43.49L262.03-43.49L262.03-43.49Q268.31-50.48 279.81-50.48L279.81-50.48L279.81-50.48Q291.31-50.48 297.17-43.84L297.17-43.84L297.17-43.84Q303.03-37.20 303.03-24.99L303.03-24.99L303.03-24.99Q303.03-12.78 297.10-6.04L297.10-6.04L297.10-6.04Q291.17 0.71 279.31 0.71" fill="#d8af8b" stroke="none" stroke-width="none" transform="translate(-195.03500366210938,19.283572158813477)" style="transform:matrix(1, 0, 0, 1, -195.035, 19.2836);fill:rgb(216, 175, 139);animation-play-state:paused" ></path></g>
<g class="path" style="transform-origin:134.685px -5.56643px;animation-timing-function:linear;animation-play-state:paused;animation-name:static-a48ec6e6-e846-4aa4-9a6f-d8552e909e03;animation-iteration-count:infinite;animation-fill-mode:forwards;animation-duration:1s;animation-delay:-0.0825s" ><path d="M351.73-48.35L347.83-48.35L347.83 0L337.89 0L313.54-45.94L313.54-1.35L317.44-1.35L317.44 0L307.71 0L307.71-1.35L311.62-1.35L311.62-48.35L307.71-48.35L307.71-49.70L327.31-49.70L345.91-14.06L345.91-48.35L342.01-48.35L342.01-49.70L351.73-49.70L351.73-48.35" fill="#d8af8b" stroke="none" stroke-width="none" transform="translate(-195.03500366210938,19.283572158813477)" style="transform:matrix(1, 0, 0, 1, -195.035, 19.2836);fill:rgb(216, 175, 139);animation-play-state:paused" ></path></g>
<g class="path" style="transform-origin:178.78px -5.56643px;animation-timing-function:linear;animation-play-state:paused;animation-name:static-a48ec6e6-e846-4aa4-9a6f-d8552e909e03;animation-iteration-count:infinite;animation-fill-mode:forwards;animation-duration:1s" ><path d="M355-48.14L355-49.70L391.92-49.70L392.63-34.93L391.35-34.93L391.35-34.93Q388.73-42.60 385.28-45.37L385.28-45.37L385.28-45.37Q381.84-48.14 375.02-48.14L375.02-48.14L373.03-48.14L373.03-25.06L376.23-25.06L376.23-25.06Q379.64-25.06 381.91-27.55L381.91-27.55L381.91-27.55Q384.18-30.03 385.03-34.36L385.03-34.36L386.10-34.36L386.10-13.35L384.89-13.35L384.89-13.35Q383.75-18.67 381.73-20.95L381.73-20.95L381.73-20.95Q379.71-23.22 376.23-23.22L376.23-23.22L373.03-23.22L373.03-1.56L381.84-1.56L381.84 0L355 0L355-1.56L359.19-1.56L359.19-48.14L355-48.14" fill="#d8af8b" stroke="none" stroke-width="none" transform="translate(-195.03500366210938,19.283572158813477)" style="transform:matrix(1, 0, 0, 1, -195.035, 19.2836);fill:rgb(216, 175, 139);animation-play-state:paused" ></path></g></g></g></g></svg>